<svg xmlns="http://www.w3.org/2000/svg" width="72" height="12" fill="none"><path fill-rule="evenodd" d="M40.9.2V0h-9v11.7h1.9v-5H38V5h-4.3V1.7h5.8c1 0 1.3-.8 1.3-1.5zm30.5 4.6a4 4 0 0 0-2.4-1c-.8 0-1.4.6-1.4 1.2s.4.9 1 1.2l1.5.5c.7.3 1.2.6 1.5 1 .3.5.4 1 .4 1.5a2.7 2.7 0 0 1-.8 2c-.6.5-1.5.8-2.5.8-1.2 0-2.2-.4-3.1-1.3l1-1.2c.6.7 1.4 1 2.2 1 1 0 1.6-.5 1.6-1.2 0-.5-.3-.9-1-1.2l-1.5-.5c-.7-.3-1.1-.6-1.4-1-.4-.4-.5-1-.5-1.6a2.4 2.4 0 0 1 .8-1.8c.6-.5 1.4-.7 2.2-.7a4 4 0 0 1 1.8.4c.2 0 .4.2.5.3.5.4.6 1 .1 1.6zm-69 6.8a4.1 4.1 0 0 0 3.2 0c.5-.1.8-.4 1.2-.7s.6-.7.8-1.1l.3-1.4h-.2c-.4 0-.8 0-1 .3-.2.1-.2.3-.3.4l-.5.8c-.5.5-1 .7-1.7.7-.5 0-1-.1-1.4-.3a2.2 2.2 0 0 1-.7-.8 3.2 3.2 0 0 1-.5-1 6 6 0 0 1 0-1.3V6a3.4 3.4 0 0 1 .5-1l.7-.8c.3-.2.8-.4 1.4-.4a2 2 0 0 1 1.5.6c.4.4.6.8.7 1.2h1.5l-.4-1.3a3.3 3.3 0 0 0-.8-1l-1.2-.6a3 3 0 0 0-1.3-.2c-.7 0-1.2.1-1.8.4-.5.2-1 .6-1.3 1L.3 5.4C0 5.9 0 6.6 0 7.3L.3 9c.2.6.5 1 .8 1.5a3.8 3.8 0 0 0 1.3 1zm8.2-9h1.6l3.2 9h-.8c-.4 0-.9-.1-1-.6l-.7-1.8h-3L9 11.7H7.5l3.1-9zm-.2 5.2 1-3 1 3h-2zm8.3 0 .4.1 1.8 3.3c.3.5.7.7 1 .7h.1l1-.2-2-3.4-.3-.6c.5-.1.8-.4 1.1-.7.4-.5.5-1.1.5-1.8 0-.5 0-1-.3-1.4s-.6-.7-1-.9l-1.8-.2h-3.5v9h1.5V4H19.8c.4 0 .6.1.8.4.2.2.2.5.2.8l-.1.8a1 1 0 0 1-.7.5h-2.3c0 .8.3 1.4 1 1.4zM26.9 4h-2.5c-.6 0-1-.6-1-1.3h3.8c.7 0 1.3.1 1.8.4a3.2 3.2 0 0 1 1.1.9c.4.4.6.9.7 1.4l.2 1.7a7 7 0 0 1-.3 2.1c-.2.6-.4 1-.8 1.4s-.7.7-1.1.8l-1.7.3h-3.7V4.6H25v5.8h1.8c.4 0 1 0 1.3-.2.4-.1.6-.3.9-.6l.4-1a5.5 5.5 0 0 0 0-3l-.6-1a2 2 0 0 0-.7-.5h-1zM65 2.7h-1.4v6.4l-3.4-5.7c-.2-.4-.6-.7-1-.7H58v9h1.5V5l3.8 6.3c.2.3.5.4.8.4h.9v-9zm-17.4 0H49v9h-.9c-.3 0-.6-.1-.8-.4 0-.2-3.8-6.3-3.8-6.3v6.7h-1.4v-9h1c.5 0 .9.3 1.2.7L47.6 9V2.7zm-6.7 9v-9h-1.5v7.6c0 1 .7 1.4 1.5 1.4zm13.5-9h-1.7l-3.1 9h1.6l.8-2.4h3l.6 1.8c.2.5.7.7 1.2.7h.7l-3.1-9zm-.9 2-1 3.2h2l-1-3.2z" fill="url(#a)"/><defs><linearGradient id="a" x1="0" y1="12" x2="72" y2="12" gradientUnits="userSpaceOnUse"><stop stop-color="#1d2457"/><stop offset="1" stop-color="#2681c0"/></linearGradient></defs></svg>