<svg xmlns="http://www.w3.org/2000/svg" width="40" height="24" fill="none"><mask id="a" maskUnits="userSpaceOnUse" x="16" y="0" width="24" height="24"><path fill-rule="evenodd" d="M16 0h24v24H16V0z" fill="#fff"/></mask><g mask="url(#a)"><path fill-rule="evenodd" d="M20 20.9A12 12 0 1 0 20 3a12 12 0 0 0-4 8.9 12 12 0 0 0 4 8.9z" fill="#f7981d"/></g><g fill-rule="evenodd"><path d="M38.7 18.7h.1v-.1zm0 .2v-.4h.1l.1.1V19l-.1-.2v.2zm0 0a.3.3 0 1 0 0-.5.3.3 0 0 0 0 .6zm-.3-.2c0-.2.2-.4.4-.4s.4.2.4.4-.2.4-.4.4-.4-.2-.4-.4z" fill="#f7981d"/><path d="m23.9 10.7-.2-1.2h-7.4l.4-1.3h6.6l-.5-1.3h-5.6l.7-1.3H22a12.1 12.1 0 0 0-.9-1.2h-2.4L20 3A12 12 0 0 0 12 0a12 12 0 1 0 9.2 19.6h-2.4l-1-1.2h4.3l.7-1.3h-5.6a12 12 0 0 1-.5-1.3h6.6a12 12 0 0 0 .4-1.3l.2-1.2a12 12 0 0 0 0-1.3v-1.3z" fill="#cb2026"/><path d="M38.7 14.8h.1v-.1zm0 .2v-.4h.1l.1.1V15l-.1-.2v.2zm0 0c.3 0 .4 0 .4-.2s-.1-.3-.3-.3-.3.1-.3.3.1.3.3.3zm-.3-.2c0-.2.2-.4.4-.4s.4.2.4.4-.2.4-.4.4-.4-.2-.4-.4z" fill="#fefefe"/><g fill="#211f5e"><path d="m16 15.5-1 .1c-.7 0-1-.4-1-1a2.8 2.8 0 0 1 0-.5v-.5l.1-.4.6-3.4H16l-.2.8h.8l-.2 1.2h-.8l-.3 2v.2c0 .3.1.4.4.4a1.6 1.6 0 0 0 .4 0l-.2 1zM19.2 12.5v-.3c0-.4-.2-.6-.6-.6-.4 0-.7.3-.9.9h1.5zm.7 3a4.5 4.5 0 0 1-1.3.1c-1.4 0-2.2-.7-2.2-2.2 0-1.7 1-3 2.3-3 1 0 1.7.8 1.7 1.9l-.1 1.2h-2.6v.1c0 .6.4.9 1.1.9a3 3 0 0 0 1.4-.3l-.3 1.2zM6 15.4H4.7l.8-4.7-1.7 4.7h-.9V11L2 15.5H.8l1-6h1.8l.1 3.7L5 9.4h2l-1 6.1zm4.2 0H9V15c-.2.4-.6.6-1.3.6-.6 0-1.2-.5-1.2-1.3a2.5 2.5 0 0 1 .1-.7c.3-.7 1-1.2 2.2-1.2h.6a1.2 1.2 0 0 0 0-.3c0-.4-.2-.5-.9-.5a4.2 4.2 0 0 0-1 .2h-.2v-1c.7-.3 1.1-.3 1.6-.3 1.1 0 1.7.5 1.7 1.4v1l-.3 1.8v.3l-.1.2V15.5zm-1-2.2h-.3c-.8 0-1.1.3-1.1.8 0 .3.2.5.4.5.7 0 1-.5 1-1.3zm17-2.7c.4 0 .7.1 1.2.4l.2-1.4h-.3l-.6-.2h-.6c-.6 0-1 0-1.4.2-.2 0-.4.3-.8.6h-.1l-1.3 1v-.6h-1.3l-.8 5h1.3l.4-2.7.3-.5c.2-.3.5-.3.7-.3h.1a7 7 0 0 0 0 1c0 1.5.9 2.5 2.3 2.5l1.1-.1.3-1.4-1.1.3c-.8 0-1.3-.6-1.3-1.5 0-1.3.7-2.3 1.7-2.3zm9.4 3.8c-.5 0-.7-.4-.7-1 0-1 .4-1.7 1-1.7.5 0 .7.4.7 1 0 1-.4 1.7-1 1.7zm1.6-5-.3 1.8c-.3-.5-.7-.7-1.2-.7-.7 0-1.3.4-1.7 1.1l-.8-.5v-.5H32l-.8 5h1.3l.4-2.7.4-.5a.7.7 0 0 1 .6-.3c-.2.4-.3.9-.3 1.4 0 1.3.7 2 1.6 2 .5 0 .9 0 1.2-.5v.5h1.2l1-6h-1.3zm-6.6 6.1h-1V15c-.4.4-.7.6-1.4.6s-1.2-.5-1.2-1.3c0-1.2.9-2 2.3-2h.5a1.2 1.2 0 0 0 0-.2c0-.4-.2-.5-.8-.5a4.2 4.2 0 0 0-1 .2H27.6l.2-1c.6-.3 1-.3 1.5-.3 1 0 1.7.5 1.7 1.4v1l-.4 1.8V15.5zm-1-2.2h-.3c-.7 0-1 .3-1 .8 0 .3.1.5.4.5.6 0 .9-.5.9-1.3zm-16.7-1.7 1 .1.1-1.1a9.1 9.1 0 0 0-1.1-.1c-1.5 0-2 .7-2 1.7 0 .5.3 1 1 1.3.5.3.6.3.6.5 0 .3-.2.5-.8.5-.3 0-.7 0-1.1-.2l-.2 1.2h.3a3.2 3.2 0 0 0 .3 0l.8.1c1.4 0 2-.6 2-1.6 0-.7-.3-1.1-1-1.4-.5-.3-.6-.3-.6-.5s.3-.5.7-.5z"/></g><g fill="#fefefe"><path d="m28 9.2-.3 1.4c-.5-.3-.8-.4-1.2-.4-1 0-1.6 1-1.6 2.3 0 1 .5 1.5 1.2 1.5l1.1-.3L27 15a4 4 0 0 1-1.2.2c-1.4 0-2.2-1-2.2-2.7 0-2.1 1.2-3.7 2.9-3.7h.6l.5.2.3.1zM23.7 10.2c-.5 0-.8.2-1.1.7v-.7h-1.1l-.8 5H22c.5-3 .6-3.6 1.2-3.6h.1c.1-.6.3-1 .5-1.4zM16.3 15a3 3 0 0 1-1 .1c-.6 0-1-.3-1-1v-.5l.1-.5v-.4l.6-3.3h1.3l-.1.7h.7l-.2 1.2H16l-.3 2a1.2 1.2 0 0 0 0 .3c0 .2 0 .3.4.3h.3l-.1 1zm-5-3.3c0 .6.3 1 1 1.3.5.3.6.4.6.6 0 .3-.3.4-.8.4-.4 0-.7 0-1.1-.2l-.2 1.2h.3a3 3 0 0 0 .3 0l.7.1c1.4 0 2-.5 2-1.6 0-.7-.2-1.1-.9-1.4-.5-.3-.6-.3-.6-.5 0-.3.2-.4.6-.4a7.1 7.1 0 0 1 1 0l.2-1.1a8.8 8.8 0 0 0-1.2-.1c-1.4 0-2 .7-2 1.7zM35.9 14c.6 0 1-.7 1-1.7 0-.6-.2-1-.6-1-.6 0-1 .7-1 1.7 0 .7.2 1 .6 1zm2 1.1h-1.3v-.4c-.3.3-.7.5-1.1.5-1 0-1.6-.8-1.6-2 0-1.7 1-3 2.1-3 .5 0 .9.1 1.3.6l.2-1.7h1.3l-1 6zM19.5 12v-.2c0-.4-.2-.6-.6-.6-.4 0-.7.3-.8.9h1.4zm.7 3c-.4.2-.8.2-1.3.2-1.5 0-2.2-.7-2.2-2.2 0-1.7 1-3 2.3-3 1 0 1.7.8 1.7 1.9l-.1 1.2H18v.1c0 .6.3 1 1.1 1a3 3 0 0 0 1.3-.4l-.2 1.2zm-13.9.1H5l.8-4.6L4 15h-.9v-4.6L2.3 15H1l1-6h2v3.7l1.2-3.7h2l-1 6zm4.2 0h-1v-.5c-.4.4-.8.6-1.4.6-.7 0-1.2-.5-1.2-1.3 0-1.2.8-2 2.3-2a4.2 4.2 0 0 1 .5.1v-.3c0-.3-.2-.5-.8-.5a4.2 4.2 0 0 0-1 .2h-.4l.2-1 1.6-.3c1 0 1.7.5 1.7 1.4l-.1 1-.3 1.8v.5l-.1.2v.1zm-1-2.2h-.2c-.8 0-1.2.3-1.2.8 0 .3.2.5.5.5.5 0 1-.5 1-1.3zM31 15.1h-1.1v-.5c-.3.4-.8.6-1.4.6-.7 0-1.1-.5-1.1-1.3 0-1.2.8-2 2.2-2l.6.1a1.3 1.3 0 0 0 0-.3c0-.3-.2-.5-.8-.5a4.2 4.2 0 0 0-1 .2H28v-1l1.6-.3c1.2 0 1.8.5 1.8 1.4l-.2 1-.2 1.8v.3l-.1.2V15.1zM30 13h-.3c-.7 0-1 .3-1 .8 0 .3.1.5.4.5.5 0 .9-.5 1-1.3zm4.4-2.7c-.5 0-.8.2-1.2.7l.2-.7h-1.2l-.8 5h1.3c.5-3 .6-3.6 1.2-3.6l.6-1.4z"/></g></g></svg>