<svg xmlns="http://www.w3.org/2000/svg" width="62" height="16" fill="none"><path fill-rule="evenodd" d="m49.9 12.6 1-6.2a3.5 3.5 0 0 1 1-2c.7-.5 1.5-.8 2.5-.8s1.5.2 1.8.4a2.4 2.4 0 0 1 .6.4s.3-.2.8-.5a3.9 3.9 0 0 1 1.8-.3c.8 0 1.6.3 2 .6s.4.6.6 1.2v1l-1 6.2h-2.2l.8-5.8c0-.3.2-1 0-1.2s-.7-.4-1-.4-.9.1-1 1.1l-1 6.3h-2.3l.9-6c0-.3 0-1-.3-1.2s-1.1-.2-1.4.2-.4.6-.5 1.2l-.8 5.8h-2.3zm-6.4-8.7h2.3l-1 6.1c0 .4 0 1.1.4 1.3s1 .2 1.3 0 .5-.5.7-1.3L48 4h2.2l-.8 5.9c-.1.6-.4 1.7-1 2.2s-1.5.9-3.3.9-2.5-1.1-2.6-1.8 0-1.4.2-2.3l.7-5zm-13.3 8.7 1-6.2a3.5 3.5 0 0 1 1-2c.7-.4 1.5-.8 2.5-.8s1.5.2 1.9.4l.5.4.8-.5a3.9 3.9 0 0 1 1.8-.3c.8 0 1.6.3 2 .6s.5.6.6 1.2v1l-1 6.2h-2.2l.8-5.8c0-.3.2-1 0-1.2s-.7-.4-1-.4-.9.1-1 1.1l-1 6.3h-2.3l1-6c0-.3 0-1-.4-1.2s-1.1-.2-1.4.2-.4.6-.5 1.2l-.8 5.8h-2.3zm-10.8-1.1 2.7-3.7c0-.1.1-.3 0-.4l-1.7-3c-.1-.2-.2-.5 0-1.2s.5-.7.6-.8.4 0 .6.4l1.8 2.8h.3L27.2.7c.2-.2.6-.6 1-.7s.7 0 1 .2.5.6.4 1-.3.9-.7 1.4L25 7.4s-.1.2 0 .4l.2.5 2.2 3.2L28.5 4h2.2l-1.3 8.7H28l1.1 1.7-2.1 1.7-3.7-6.3c0-.1 0-.2-.3 0l-3 3.6-.7-1.8zm3.3-9.7C23 1 23.7.2 24.3.2s1 .7.8 1.6-.9 1.7-1.5 1.7-1-.7-.9-1.7zm-9 2.6s.7-.5 2.3-.7 2.3 0 3 .6.8 1.5.7 2.1l-.7 5-.6.5c-.7.5-1.7.8-2.9 1s-2.7-.3-3.2-1.6-.3-3 1.3-3.7 4-.8 4-.8.2-.7-.2-1c-.4-.5-.9-.4-1.9-.2l-2 .6.2-1.8zm3.7 3.9h-.8a5.8 5.8 0 0 0-1.7.4 1.4 1.4 0 0 0-1 1.4c0 .5.3 1.1 1.3 1.2s1.8-.6 1.8-.6l.4-2.4zM0 12.6l1-6.2c0-.5.4-1.4 1-2s1.5-.8 2.5-.8 1.5.2 1.8.4l.6.4.8-.5a3.9 3.9 0 0 1 1.7-.3c1 0 1.7.3 2 .6s.5.6.7 1.2v1l-1 6.2H9l.8-5.8V5.6c-.2-.2-.7-.4-1-.4s-.9.1-1 1.1l-1 6.3H4.4l.9-6c0-.3 0-1-.3-1.2s-1.1-.2-1.4.2-.4.6-.5 1.2l-.8 5.8H0z" fill="#eb008b"/></svg>