<svg xmlns="http://www.w3.org/2000/svg" width="32" height="20" fill="none"><path fill-rule="evenodd" d="M30.8 16.2H32V15h-1.2v1.2zM23.6 11l-.1.5c-.2 1.1-.8 2-1.6 2.8-.3.4-1 .8-1.3.8-.1 0-.2 0-.3-.2-.1-.2-.1-.8.1-1.5a6 6 0 0 1 1.4-2c.5-.6 1.1-.8 1.5-.8 0 0 .2 0 .3.4zm-9-.9v.2a.8.8 0 0 1-.5-.4l.1-.4a.4.4 0 0 1 .3-.1c.1.1.2.3 0 .7zm-3.8.9-.1.7c-.5 1.3-.8 2-1.9 3-.3.2-.7.4-1 .4-.1 0-.2 0-.3-.2-.2-.2-.3-.7 0-1.4.3-.9 1.2-2 2-2.5l.7-.3.5-.1.1.4zm20.4-2.2c.6-1.2 1-3.1.6-4.3-.3-.8-1-1.3-1.8-1.3-1.6 0-2.2 2-2.5 3-.8 2.4-1.2 5-1.4 7.8H26l-1.2.8-.1-.6V11c0-1-.5-1.6-1.4-1.6-.8 0-1.7.4-2.3 1-.8.8-1.4 1.7-1.7 2.6l-.3 1.3-.3.3c-.9.6-1.1.4-1.2.3-.4-.3 0-1.3.3-2.2.3-.8.6-1.5.5-2.1a.6.6 0 0 0-.4-.4h-.5l-1.6.3v-.2c0-.3.2-1.1-.5-1.8-.4-.4-1.1-.4-1.7 0-.6.3-.9 1-.6 1.8.2.4.5 1 1.2 1.2-.5 1.4-1.3 3-2.1 3.6-.1-.4-.2-1.3 0-3.7V11c0-.3 0-.8-.4-1.2-.2-.2-.5-.4-1-.4-.3 0-.6 0-1 .2a5 5 0 0 0-.8.4 7 7 0 0 0-2.6 3c-.3 1-.3 2 .2 2.6.3.4.8.7 1.4.7s1.1-.3 1.7-.8l1.2-1.2c0 1.1.3 1.7.7 2a.9.9 0 0 0 .5 0h.4c1.3-.7 2.5-2.9 3-4.6h.3a6.7 6.7 0 0 0 1.3-.1l-.3.7c-.5 1.2-1 2.6 0 3.5.7.5 1.6.5 2.6-.2.3.4.7.7 1.3.7 1 0 2-1 2.2-1.1l.7-.8c0 .3.1 1.1.8 1.4a1.2 1.2 0 0 0 .5.1c.4 0 .9-.2 1.3-.4l.1 4.5 1.2-.7v-4.7c.8-.6 1.6-1 2.3-1.2l.5-1.2c-.8 0-1.8.3-2.8 1 .2-2.4.6-4.6 1.2-6.6.2-.7.7-2.1 1.4-2.2.3 0 .5.1.6.5.3.8 0 2.1-.3 3l1 .9zM9.4 7.5a5.8 5.8 0 0 1-5 1.1c.7-3 1.8-6 3.7-7.1a2.2 2.2 0 0 1 2 0c.5.2 1 .7 1.1 1.3a5 5 0 0 1-1.8 4.7zm3-5c-.2-1-.9-1.8-1.9-2.2-1-.4-2-.4-3 .1C5.2 1.7 4 5 3.2 8.1a5 5 0 0 1-2-3L0 5.6c.5 1.7 1.6 3 3 3.7-.5 2.2-.6 4.2-.6 5v3.1l1.2-.7v-2.3c0-1.3.3-3 .6-4.6 2 .5 4.1 0 6-1.5 1.8-1.3 2.8-3.9 2.3-6z" fill="#00b1dd"/></svg>