<svg xmlns="http://www.w3.org/2000/svg" width="52" height="16" fill="none"><path fill-rule="evenodd" d="M12.5 9s.1.1 0 .2l-1.8 6.5a.1.1 0 0 1-.2.1H7.3a.1.1 0 0 1-.1 0l-.8-3.1h-.1l-.9 3v.1H1.8L0 9.1.1 9h3.2l.1.1.7 3.3h.1L5 9H7.7l.7 3.3.8-3.3H12.5zm21.5.1H37V13.5h4.5l.1.1v2.1l-.1.1H34V9zm17.5 3.3c0-1.3-.3-2.6-1.6-3.1-.9-.3-2.4-.4-3.2-.4l-4.2.2-.1.1v6.4l.1.2 4.2.1c.8 0 2.4 0 3.2-.3 1.4-.5 1.6-1.8 1.6-3.2zm-6.1 1.1v-2.1l1.4-.1c1.4 0 1.5.2 1.5 1.2s0 1.2-1.5 1.2h-1.3l-.1-.2zm-26-1c0-1-.3-1.4-1.6-1.4s-1.7.3-1.7 1.4.3 1.4 1.7 1.4 1.6-.4 1.6-1.4zm3.2 0c0 1.3-.2 2.6-1.6 3.1-.6.3-1.7.4-3.2.4s-2.7-.1-3.3-.4c-1.4-.5-1.6-1.8-1.6-3.2s.2-2.7 1.6-3.2C15 9 16.2 9 17.8 9s2.6.1 3.2.3c1.4.5 1.6 1.9 1.6 3.2zm10.6 3.1a27.1 27.1 0 0 0-2.6-2l-.1-.1h.1c1.3-.3 2-1.4 2-2.2 0-1-.2-1.9-1.5-2.2-1.2-.3-7.4-.2-7.4-.2l-.1.2v6.6l.1.1h2.9v-2.2a36.2 36.2 0 0 1 2.8 2.3h3.7v-.1c0-.1.1-.1 0-.2zm-6.6-3.4v-1.3h2.2c.5 0 .7.2.7.6 0 .5-.2.7-.7.7h-2.2z" fill="#782a90"/><g fill="#1366b2"><path d="M50.7.2H52v1h-1.3v-1z"/><path d="M28.6 5.7V6H30V2.6c0-.6-.5-1.2-1.5-1.2-.9 0-1.6.4-1.6 1.2v.3H28v-.3c0-.2 0-.4.3-.4s.2.2.2.4c0 .4-.4.5-.8.7-.5.2-1 .4-1 1v.8c0 .5.4 1 .9 1s.7-.2 1-.4zm0-2V5c0 .3 0 .4-.2.4s-.3-.1-.3-.4v-.5c0-.4.2-.5.5-.6zM32.7 6c.9 0 1-.6 1-1.2V2.6c0-.5-.2-1.1-.9-1.1-.5 0-.8.1-1 .5v-.4h-1.3V7h1.3V5.6c.2.3.5.4 1 .4zm-.6-3.6c.2 0 .3.1.3.3v2c0 .3-.1.4-.3.4s-.3-.1-.3-.3v-2c0-.3.1-.4.3-.4z" fill-rule="evenodd"/><path d="M34.4 1.6h1.2V6h-1.2V1.6zm4.3 4.3-.8-2-.2.3V6h-1.5V.1h1.5V2l.9-1.9H40l-1.3 2.5L40 6h-1.4zm4.2-3.1c-.4-.2-1.2-.2-1.2.5V6h-1.2V1.6h1.1V2c.5-.5 1-.5 1.3-.5v1.3z"/><path d="M44.8 6c1 0 1.6-.3 1.6-1.1v-.5h-1.3V5c0 .2 0 .3-.3.3s-.2-.1-.2-.3V4h1.8V2.8c0-1-.7-1.3-1.6-1.3-1 0-1.5.5-1.5 1.3v2c0 1 .7 1.3 1.5 1.3zm0-3.7c.2 0 .3 0 .3.2v.6h-.6v-.6c0-.1 0-.2.3-.2zm4 3.2v.4h1.3V.3h-1.3v1.6c-.1-.2-.5-.4-.9-.4-.7 0-1 .6-1 1.3V5c0 .5.2 1.1 1 1.1.5 0 .9-.1 1-.5zm-.2-3.1c.2 0 .3 0 .3.3v2c0 .3-.2.4-.3.4s-.3-.1-.3-.3v-2c0-.3.2-.4.3-.4z" fill-rule="evenodd"/><path d="M50.7 1.6H52V6h-1.3V1.6zM26 3.4V6h-1.4V3.4L23.2.2h1.5l.5 1.6.4-1.6h1.5L26 3.4z"/><path fill-rule="evenodd" d="M19.3 0c.3 0 2.6.1 3.4 2.3.3.7.2 1.7-.2 2.5S21.1 6.3 20 6.2c-.8 0-1.6-.5-2-1.2-.2-.7-.2-1.4.5-2v.6c.3.3.7.4 1.1.2s.5-.3.5-.7c0-.2-.3-.4-.5-.5-.5-.2-1-.1-1.4.3-.4.5-.6 1.2-.8 1.8l-.3.8c-.2.6-.6 1.2-1.4 1.4h-.6c-.8-.2-1.2-.8-1.4-1.4l-.3-.8a4 4 0 0 0-.8-1.8c-.5-.4-.9-.5-1.4-.3-.2 0-.4.3-.5.5 0 .4.1.6.5.7s.8 0 1-.2l.1-.5a1.6 1.6 0 0 1 .5 1.9c-.4.7-1.2 1.1-2 1.2-1 0-2-.6-2.5-1.4A3 3 0 0 1 8 2.3C8.9 0 11.2 0 11.5 0c1 0 2.2.3 3 1.1l.8.9h.1l.9-1c.8-.7 2-1 3-1zm0 5c.6.3 1.3.2 1.8-.2.7-.7.8-1.5.6-2.3-.3-1-1.4-1.4-2.2-1.5-1 0-2.4.5-3 1.5l-.3.8h-1.5l-.4-.8c-.5-1-1.9-1.5-2.9-1.5-.8 0-1.9.6-2.2 1.5-.3.8-.2 1.6.5 2.3.5.4 1.2.5 1.7.3.3-.1.6-.4.7-.7-.5.4-1.3.6-2 0 0 0-.8-.6-.4-1.8.2-.5 1-1 1.6-1 1-.2 1.8.1 2.4.9.4.6.6 1.2.8 1.9l.5 1.2c0 .2.2.3.4.3s.4 0 .5-.3l.4-1.2c.2-.7.4-1.3.9-2 .6-.7 1.4-1 2.3-.8.6 0 1.4.5 1.6 1 .4 1.2-.3 1.7-.3 1.7-.8.7-1.6.5-2 .1 0 .3.3.5.6.7z"/></g></svg>