<svg xmlns="http://www.w3.org/2000/svg" width="64" height="16" fill="none"><g fill-rule="evenodd"><path d="M64 15.89H62.8c-.82 0-1.47-.24-1.92-.72-.4-.43-.62-1-.6-1.56V9.65H59l.35-1.74h.92V6.07h2.18v1.84H64v1.74h-1.54v3.83c0 .48.25.72.75.72H64v1.69zM7.16 13.74a10.47 10.47 0 0 0 .12-1.84c.02-.6-.02-1.22-.12-1.82a2.73 2.73 0 0 0-.76-1.53c-.54-.48-1.24-.72-2.12-.72s-1.59.26-2.1.79V6.09H0v9.81h2.1v-.75c.56.56 1.35.87 2.18.84.89 0 1.6-.24 2.12-.72.39-.36.64-.87.76-1.53zM5.11 11.9c0-.75-.08-1.3-.25-1.62-.21-.44-.62-.66-1.22-.66s-1 .22-1.22.66c-.16.33-.25.87-.25 1.62s.09 1.3.25 1.64c.21.44.62.66 1.22.66s1.01-.22 1.22-.66c.17-.32.25-.87.25-1.64zm17.7 4h2.16v-5.1c0-.97-.3-1.73-.88-2.27-.51-.47-1.2-.7-2.06-.7a2.99 2.99 0 0 0-2.17.83v-.74h-2.12v7.98h2.17v-4.83c0-.5.16-.87.47-1.13.27-.22.62-.34.98-.32a1.46 1.46 0 0 1 .97.32c.32.25.47.63.47 1.13v4.83zm-8.68-7.98h2.15v7.99h-2.15v-.94a3.23 3.23 0 0 1-4.84-.13 4.4 4.4 0 0 1-1.01-2.95 4.3 4.3 0 0 1 1-2.9 3.31 3.31 0 0 1 2.52-1.16c1.3-.06 2 .4 2.34 1.1l-.01-1zm-.42 2.36c.2.32.3.86.3 1.62 0 .77-.1 1.31-.3 1.64-.26.44-.75.66-1.49.66s-1.22-.22-1.48-.66c-.2-.34-.31-.88-.3-1.64s.1-1.3.3-1.63c.25-.43.75-.65 1.48-.65s1.24.22 1.5.66zm44-2.46a4.49 4.49 0 0 1 .65.04c-.14.37-.22.76-.3 1.15l-.13.6h-.96a1.31 1.31 0 0 0-.95.35c-.31.3-.48.7-.45 1.12v4.8H53.4V7.92h2.12v.76a2.82 2.82 0 0 1 2.19-.85zm-7.94.1h2.15v7.98h-2.15v-.93a3.24 3.24 0 0 1-4.85-.13 4.4 4.4 0 0 1-1-2.95 4.3 4.3 0 0 1 1-2.9 3.31 3.31 0 0 1 2.51-1.17c1.3-.05 2 .4 2.34 1.12V7.92zm-.42 2.36c.2.32.3.86.3 1.62 0 .77-.1 1.31-.3 1.64-.26.44-.76.66-1.5.66s-1.22-.22-1.48-.66c-.2-.34-.3-.88-.3-1.64s.1-1.3.3-1.63c.26-.43.75-.65 1.49-.65s1.23.22 1.49.66zm-15.33-4.2-5.81 5.33V7.95h-2v7.97l10.73-9.85h-2.92zm3.78 5.33 5.82-5.34h2.92l-10.73 9.85V7.95h1.99v3.46zm1.77 2.15 1.6 2.34h2.57l-2.63-3.75-1.54 1.41zm-8.02 2.34-1.6-2.34 1.55-1.41 2.63 3.75h-2.58z" fill="#e11931"/><path d="m6.12 1.26-.43.32-.3.22v.98l.16-.1v.45l-.15.11v.99l.15-.11v.46l-.15.1v1l.29-.22.43-.32.57-.43V3.05c0-.07-.05-.14-.1-.17.08-.08.1-.15.1-.23V.83l-.57.43zm.37 2.51c0 .09-.04.13-.12.19l-.25.19-.37.28v-.46l.37-.28.22-.16c.07-.06.15-.05.15.03v.21zm0-1.44c0 .09-.04.12-.12.18l-.25.2-.37.27v-.46l.37-.27.22-.17c.07-.05.15-.04.15.04v.2zm-.52-1.25V.72L5.7.94l-.09.07V.64L5.7.57l.28-.22V0L5.7.22l-.3.22v1.08l.3-.22.28-.22zM4.61 0v.35l.18.14v.4L4.72.82v.35l.17.14.18.13V1.1l-.08-.06V.65l.19.14V.44L4.89.22 4.61 0zm-.72.83v.99l1 .75.12.1-.12.1-.15.15-.85-.64v.98l.27.2-.27.26v.99l1 .75.29.22v-.99l-.29-.21-.84-.63.28-.26.56.43.29.21v-.99l-.27-.2.27-.25V1.8l-.29-.21-1-.76z" fill="#ec1c24"/></g><g fill="#231f20"><path d="M10.24 3.92H8.78l1.44-2.2v-.4H8.3l-.13.4 1.41.01-1.47 2.23v.38h2l.14-.4zM10.8 1.3c-.2 0-.35.14-.35.33 0 .18.16.33.35.33.2 0 .36-.15.36-.33s-.16-.34-.35-.34zM11.06 2.07l-.52.09-.01 2.18h.53l.01-2.26zM18.01 4H18a.62.62 0 0 1-.22.04c-.22 0-.28-.07-.28-.34V2.42h.43l.14-.34-.56-.01v-.6l-.53.07-.01.53h-.26v.34l.26.01v1.4c0 .27.1.59.63.59a1.17 1.17 0 0 0 .47-.1l-.06-.3z"/><path d="M13.69 2.07c.37 0 .63.13.73.37.04.1.05.2.04.54V4.4l-.53.01-.01-.15a.86.86 0 0 1-.52.15c-.51 0-.8-.24-.8-.67 0-.51.4-.78 1.19-.78h.14v-.15c0-.25-.04-.37-.31-.37-.34 0-.7.24-.7.24h-.02l.1-.47a1.74 1.74 0 0 1 .69-.15zm-.2 1.97c.16 0 .32-.08.42-.22v-.5l-.07-.01c-.54 0-.66.16-.66.4 0 .2.12.33.32.33zm2.27-1.97c.38 0 .63.13.73.37.05.1.05.2.04.54V4.4l-.53.01-.01-.15a.86.86 0 0 1-.52.15c-.5 0-.8-.24-.8-.67 0-.5.41-.78 1.19-.78H16v-.1c0-.26-.05-.38-.32-.38-.34 0-.7.25-.7.25l-.02-.01.1-.5V2.2a1.73 1.73 0 0 1 .7-.13zm-.19 1.97c.16 0 .31-.08.42-.22v-.5l-.08-.01c-.54 0-.66.16-.66.4 0 .2.12.33.32.33z" fill-rule="evenodd"/><path d="m12.66 2.63.1-.46a.34.34 0 0 0-.18-.04c-.23 0-.41.1-.6.33v-.38l-.01-.01-.48.07-.01 2.2H12l.01-1.44a.45.45 0 0 1 .44-.32.7.7 0 0 1 .18.05h.02z"/><path fill-rule="evenodd" d="M20.41 2.73c.15.02.29.08.39.15.2.13.3.36.3.62 0 .24-.1.46-.26.6-.26.22-.58.24-1.05.24h-.84V1.3h.77c.3 0 .62 0 .9.16.21.14.34.36.34.6 0 .13-.04.32-.23.48a.89.89 0 0 1-.32.18zm-1.07-1.11h.54c.14 0 .3 0 .44.11a.48.48 0 0 1 .19.39.48.48 0 0 1-.17.37c-.14.11-.33.11-.42.11h-.58v-.98zM20.5 3.9c-.13.1-.32.12-.48.12h-.68v-1.1h.57c.18 0 .4 0 .55.1.08.07.2.2.2.48 0 .23-.1.35-.16.4z"/><path d="M24.42 2.08a.9.9 0 0 0-.4.1 1.19 1.19 0 0 0-.34.22v-.32h-.01l-.37.05v2.2h.38V2.7a1.14 1.14 0 0 1 .31-.2c.13-.07.25-.1.34-.1s.2.03.25.09c.09.09.09.21.09.34v1.5h.38l.01-1.66c0-.06 0-.14-.06-.26a.65.65 0 0 0-.58-.33zm1.8 1.01.97-1v-.02h-.48l-.95 1V1.31l-.39.06v2.96h.38l.01-1.23 1.08 1.23h.5L26.21 3.1z"/><path d="M21.78 2.15a1.67 1.67 0 0 1 .51-.08c.47 0 .63.22.68.35.04.1.04.22.03.32V4.38l-.37.01-.01-.23a.92.92 0 0 1-.63.23c-.49 0-.77-.23-.77-.63 0-.25.11-.45.34-.6.28-.16.66-.2.93-.2h.15v-.22c0-.09 0-.17-.09-.26-.08-.1-.2-.1-.3-.1-.17 0-.33.05-.4.07a1.44 1.44 0 0 0-.34.18h-.02l.07-.39a1.52 1.52 0 0 1 .22-.09zm.26 1.97a.66.66 0 0 0 .57-.34v-.55h-.04l-.12-.01c-.18 0-.5.02-.65.16-.1.08-.15.2-.15.35 0 .16.06.24.1.29.07.06.18.1.3.1zm5.8-1.97a1.67 1.67 0 0 1 .51-.08c.48 0 .63.22.68.35.04.1.04.2.04.3V4.38l-.38.01-.01-.23a.92.92 0 0 1-.63.23c-.49 0-.77-.23-.77-.63a.67.67 0 0 1 .34-.6c.28-.16.66-.2.93-.2h.15v-.22c0-.09-.01-.17-.09-.26-.09-.1-.2-.1-.3-.1-.16 0-.33.05-.4.07a1.41 1.41 0 0 0-.34.18h-.02l.07-.39a1.53 1.53 0 0 1 .22-.09zm.26 1.97c.19 0 .43-.1.57-.34v-.55h-.04l-.12-.01c-.18 0-.5.02-.66.16-.09.08-.14.2-.14.35 0 .16.06.24.1.29.07.06.17.1.3.1z" fill-rule="evenodd"/><path d="m30.47 3.07-.3-.07c-.25-.05-.35-.14-.35-.3 0-.2.17-.34.42-.34.18 0 .34.04.57.14l.14-.25a1.46 1.46 0 0 0-.72-.18c-.5 0-.85.27-.85.67 0 .32.2.53.57.6l.29.05c.28.05.4.16.4.36 0 .21-.17.36-.44.36-.23 0-.48-.07-.75-.2h-.01l-.14.25c.27.15.58.23.86.23.55 0 .92-.29.92-.72 0-.31-.2-.52-.6-.6zM31.66 2.08l-.38.05-.01 2.2h.38l.01-2.25z"/></g></svg>